<svg xmlns="http://www.w3.org/2000/svg" width="24" height="24" viewBox="0 0 64 64">
<path d="M13.396 32.0001C13.396 41.0233 19.822 48.547 28.3467 50.2475C29.0834 50.3926 29.7681 49.8308 29.7681 49.0791V14.9247C29.7681 14.1731 29.0834 13.6112 28.3467 13.7563C19.822 15.4531 13.396 22.9768 13.396 32.0001Z" fill="currentColor"/>
<path d="M42.0469 30.1397C46.5679 30.1397 50.2329 26.4747 50.2329 21.9536C50.2329 17.4326 46.5679 13.7676 42.0469 13.7676C37.5259 13.7676 33.8608 17.4326 33.8608 21.9536C33.8608 26.4747 37.5259 30.1397 42.0469 30.1397Z" fill="currentColor"/>
<path d="M34.2329 35.7212V49.1612C34.2329 49.8644 34.8729 50.3965 35.5613 50.2626C42.9808 48.8226 48.8264 42.9807 50.2627 35.5612C50.3966 34.8728 49.8645 34.2328 49.1613 34.2328H35.7213C34.899 34.2328 34.2329 34.8988 34.2329 35.7212Z" fill="currentColor"/>
</svg>